<?xml version="1.0" standalone="no"?>
<!DOCTYPE svg PUBLIC "-//W3C//DTD SVG 1.1//EN" "http://www.w3.org/Graphics/SVG/1.1/DTD/svg11.dtd" >
<svg xmlns="http://www.w3.org/2000/svg" xmlns:xlink="http://www.w3.org/1999/xlink" version="1.1">
<metadata></metadata>
<defs>
<font id="itc_avant_garde_gothicXLt" horiz-adv-x="1136" >
<font-face units-per-em="2048" ascent="1638" descent="-410" />
<missing-glyph horiz-adv-x="567" />
<glyph unicode="&#xfb01;" horiz-adv-x="935" d="M10 1032v53h178v70q0 111 31 179t103 112q87 55 206 61v-63q-145 -12 -213.5 -82.5t-68.5 -206.5v-70h282v-53h-282v-1032h-58v1032h-178zM719 0v1085h57v-1085h-57zM719 1329v187h57v-187h-57z" />
<glyph unicode="&#xfb02;" horiz-adv-x="950" d="M27 1032v53h178v70q0 111 30.5 179t102.5 112q87 55 207 61v-63q-145 -12 -214 -82.5t-69 -206.5v-70h283v-53h-283v-1032h-57v1032h-178zM735 0v1516h58v-1516h-58z" />
<glyph horiz-adv-x="0" />
<glyph horiz-adv-x="682" />
<glyph unicode=" "  horiz-adv-x="567" />
<glyph unicode="&#x09;" horiz-adv-x="567" />
<glyph unicode="&#xa0;" horiz-adv-x="567" />
<glyph unicode="!" horiz-adv-x="530" d="M236 0v166h61v-166h-61zM236 340v1176h61v-1176h-61z" />
<glyph unicode="&#x22;" horiz-adv-x="681" d="M193 909v607h61v-607h-61zM428 909v607h61v-607h-61z" />
<glyph unicode="#" d="M37 555l6 47h309l39 281h-309l8 47h309l64 452h49l-63 -452h292l64 452h49l-63 -452h309l-6 -47h-312l-39 -281h312l-6 -47h-310l-69 -492h-49l67 492h-293l-67 -492h-52l70 492h-309zM401 602h293l41 281h-293z" />
<glyph unicode="$" d="M170 465h61q12 -88 36.5 -141t74.5 -97q96 -90 238 -90q137 0 232 95t95 231q0 183 -155 266q-36 20 -76 34t-144 44q-157 44 -230 125.5t-73 212.5q0 138 84 231q44 51 97 78.5t135 40.5v164h61v-164q142 -17 229 -104.5t101 -227.5h-62q-12 74 -33.5 118t-64.5 81 q-40 37 -92.5 57.5t-105.5 20.5q-118 0 -202.5 -86.5t-84.5 -208.5q0 -160 135 -232q32 -18 66 -29.5t133 -39.5q180 -51 262 -141t82 -238q0 -150 -105 -264q-51 -57 -109.5 -84.5t-148.5 -38.5v-195h-61v195q-159 15 -262.5 121.5t-112.5 265.5z" />
<glyph unicode="%" horiz-adv-x="1472" d="M45 1208q0 145 94.5 239.5t239.5 94.5q144 0 239 -94.5t95 -237.5q0 -146 -94 -241t-240 -95q-145 0 -239.5 94.5t-94.5 239.5zM102 1208q0 -124 77.5 -203t199.5 -79q121 0 198.5 78.5t77.5 201.5q0 126 -76.5 205.5t-199.5 79.5q-122 0 -199.5 -79.5t-77.5 -203.5z M233 0l936 1516h66l-936 -1516h-66zM760 307q0 145 94.5 239.5t239.5 94.5q144 0 238.5 -94.5t94.5 -237.5q0 -147 -93.5 -241.5t-239.5 -94.5q-145 0 -239.5 94.5t-94.5 239.5zM817 307q0 -124 77.5 -203t199.5 -79q121 0 198.5 78.5t77.5 201.5q0 126 -76.5 205.5 t-199.5 79.5q-122 0 -199.5 -79.5t-77.5 -203.5z" />
<glyph unicode="&#x26;" horiz-adv-x="1476" d="M113 397q0 154 100 270.5t305 202.5l-78 84q-78 85 -105.5 140t-27.5 127v2v2q0 131 94 224t226 93q138 0 237 -98t99 -234q0 -156 -142 -254q-63 -42 -205 -104l377 -385l256 489h68l-279 -534l394 -404l-43 -41l-379 388l-49 -97q-60 -117 -117 -180 q-112 -115 -293 -115q-186 0 -312 122t-126 302zM174 397q0 -158 108.5 -262t272.5 -104q121 0 202 61t150 203l56 115l-404 417q-209 -97 -297 -195t-88 -235zM369 1227q0 -59 24.5 -111t79.5 -110l102 -109q112 49 162 76.5t84 56.5q80 68 80 180q0 115 -78.5 195 t-191.5 80q-109 0 -185.5 -75.5t-76.5 -182.5z" />
<glyph unicode="'" horiz-adv-x="454" d="M197 909v607h61v-607h-61z" />
<glyph unicode="(" horiz-adv-x="870" d="M211 492q0 199 65.5 390.5t188.5 354.5q74 98 146.5 163t193.5 142v-72q-118 -79 -191.5 -152t-144.5 -181q-193 -298 -193 -643q0 -386 234 -705q66 -88 128.5 -145.5t166.5 -128.5v-76q-92 60 -148.5 105.5t-111.5 105.5q-158 168 -246 390.5t-88 451.5z" />
<glyph unicode=")" horiz-adv-x="870" d="M66 -492q118 81 191 154.5t144 181.5q193 298 193 643q0 188 -60 368.5t-174 334.5q-66 89 -128 147.5t-166 128.5v76q102 -66 163 -117t121 -120q148 -169 228.5 -382t80.5 -434q0 -199 -65 -390.5t-188 -354.5q-74 -98 -145.5 -162.5t-194.5 -142.5v69z" />
<glyph unicode="*" horiz-adv-x="1173" d="M309 1087l219 127l-219 123l31 54l217 -127v252h59v-252l218 127l28 -52l-215 -125l219 -129l-28 -49l-222 125v-252h-59v254l-217 -127z" />
<glyph unicode="+" horiz-adv-x="1228" d="M102 483v58h484v485h57v-485h483v-58h-483v-483h-57v483h-484z" />
<glyph unicode="," horiz-adv-x="567" d="M125 -147l129 315h65l-129 -315h-65z" />
<glyph unicode="-" horiz-adv-x="544" d="M0 537v59h545v-59h-545z" />
<glyph unicode="." horiz-adv-x="567" d="M254 0v166h61v-166h-61z" />
<glyph unicode="/" horiz-adv-x="1060" d="M137 -205l719 1721h68l-719 -1721h-68z" />
<glyph unicode="0" d="M80 455v587q0 302 225 431q122 69 262 69q207 0 347.5 -138t140.5 -343v-606q0 -280 -228 -408q-126 -74 -260 -74q-138 0 -264 74q-109 61 -166 166t-57 242zM141 455q0 -184 120 -305t302 -121q88 0 172 33.5t144 91.5q114 114 114 301v606q0 186 -120.5 306 t-307.5 120q-189 0 -306.5 -121t-117.5 -317v-594z" />
<glyph unicode="1" d="M227 1460v56h398v-1516h-62v1460h-336z" />
<glyph unicode="2" d="M117 0v55l651 666q110 113 156.5 196.5t46.5 169.5v3v4v2v2q0 167 -109.5 278t-273.5 111q-154 0 -260 -103q-61 -60 -89 -134.5t-36 -196.5h-62q7 132 39.5 213.5t100.5 150.5q128 125 313 125q187 0 312.5 -127.5t125.5 -318.5v-4v-5v-6v-4q0 -92 -52.5 -186.5 t-170.5 -214.5l-610 -621h833v-55h-915z" />
<glyph unicode="3" d="M80 440h61q7 -106 34.5 -173t86.5 -126q118 -112 289 -112q169 0 282 114.5t113 284.5q0 179 -122.5 295.5t-309.5 116.5h-82v55h80q154 0 244 81.5t90 219.5q0 126 -81.5 208.5t-205.5 82.5q-126 0 -206 -77t-95 -212h-61q9 89 33.5 144.5t74.5 103.5q104 96 250 96 q152 0 252 -98.5t100 -247.5q0 -115 -55 -199t-158 -125v-4q99 -40 156 -85t98 -117q60 -108 60 -228q0 -203 -130 -334t-331 -131q-199 0 -332 133q-67 66 -97 141t-38 193z" />
<glyph unicode="4" d="M35 295v53l770 1168h84v-1166h153v-55h-153v-295h-62v295h-792zM106 350h721v1092h-4z" />
<glyph unicode="5" d="M43 444h61q17 -107 51.5 -174.5t100.5 -126.5q61 -55 137.5 -84.5t155.5 -29.5q119 0 221.5 62.5t162.5 168.5t60 229q0 191 -131 327t-315 136q-100 0 -182.5 -42t-161.5 -134l-53 15l139 725h680v-56h-631l-111 -571q89 65 161.5 92t162.5 27q138 0 254 -68.5 t183 -187.5t67 -260q0 -139 -68.5 -259t-185 -190t-252.5 -70q-91 0 -180.5 36t-159.5 100q-72 66 -109 140t-57 195z" />
<glyph unicode="6" d="M68 475q0 98 30.5 185t98.5 188l458 668h70l-406 -590l5 -2q119 77 251 77q136 0 249 -67t178 -183.5t65 -256.5q0 -144 -66.5 -264t-182.5 -188.5t-255 -68.5q-214 0 -354.5 142.5t-140.5 359.5zM129 477q0 -195 122.5 -321.5t311.5 -126.5t316 130.5t127 325.5 q0 196 -124 328.5t-307 132.5q-190 0 -318 -134.5t-128 -334.5z" />
<glyph unicode="7" d="M178 1460v56h805v-56l-676 -1460h-63l674 1460h-740z" />
<glyph unicode="8" d="M106 430q0 148 83 259.5t235 168.5q-106 51 -163.5 136.5t-57.5 191.5q0 146 107.5 251t256.5 105q151 0 258 -104t107 -250q0 -107 -57.5 -193t-163.5 -137q80 -29 131.5 -65.5t95.5 -94.5q90 -123 90 -270q0 -124 -62 -229t-168 -165.5t-231 -60.5q-192 0 -326.5 133.5 t-134.5 323.5zM168 428q0 -167 116 -283t283 -116q166 0 283 116t117 281q0 169 -115.5 285t-284.5 116q-167 0 -283 -116t-116 -283zM264 1184q0 -126 88 -213.5t215 -87.5q126 0 214.5 87.5t88.5 211.5q0 129 -87.5 217t-215.5 88q-127 0 -215 -87.5t-88 -215.5z" />
<glyph unicode="9" d="M70 1022q0 220 145.5 370t357.5 150q214 0 355 -142.5t141 -359.5q0 -99 -30 -186t-99 -186l-459 -668h-69l405 590l-4 2q-115 -78 -250 -78q-209 0 -351 146.5t-142 361.5zM131 1026q0 -194 123.5 -325.5t306.5 -131.5q189 0 318 134t129 331q0 198 -122.5 325.5 t-312.5 127.5q-189 0 -315.5 -131.5t-126.5 -329.5z" />
<glyph unicode=":" horiz-adv-x="567" d="M254 0v166h61v-166h-61zM254 920v165h61v-165h-61z" />
<glyph unicode=";" horiz-adv-x="567" d="M125 -147l129 315h65l-129 -315h-65zM252 920v165h61v-165h-61z" />
<glyph unicode="&#x3c;" horiz-adv-x="1228" d="M102 481v66l1024 481v-63l-956 -451l956 -451v-63z" />
<glyph unicode="=" horiz-adv-x="1228" d="M102 285v57h1024v-57h-1024zM102 682v57h1024v-57h-1024z" />
<glyph unicode="&#x3e;" horiz-adv-x="1228" d="M102 0v63l957 451l-957 451v63l1024 -481v-66z" />
<glyph unicode="?" horiz-adv-x="1097" d="M82 1112q10 112 38.5 179t88.5 126q60 57 144 90t171 33q178 0 305 -124.5t127 -299.5q0 -100 -47 -177t-196 -222q-85 -82 -119.5 -164.5t-34.5 -202.5v-2v-2v-2v-2v-2h-61q3 156 48.5 252t176.5 221q103 100 137.5 160.5t34.5 140.5v2v2v2q0 149 -108 253t-263 104 q-77 0 -149.5 -28t-124.5 -79q-51 -50 -75.5 -107.5t-31.5 -150.5h-61zM498 0v166h59v-166h-59z" />
<glyph unicode="@" horiz-adv-x="1630" d="M84 748q0 163 61.5 310t166.5 253t250 168.5t306 62.5q198 0 359.5 -83t253.5 -229.5t92 -326.5q0 -254 -166 -420q-69 -69 -157 -111t-160 -42q-151 0 -160 153h-4q-95 -145 -254 -145q-105 0 -166.5 71.5t-61.5 194.5q0 145 63 279t166 215.5t214 81.5q83 0 137.5 -44 t71.5 -126h4l47 137h57l-196 -557q-27 -77 -27 -109q0 -98 111 -98q63 0 135.5 35.5t132.5 95.5q156 156 156 387q0 167 -83 301.5t-230.5 210.5t-330.5 76q-152 0 -287.5 -57.5t-233 -156t-154 -236t-56.5 -291.5q0 -200 94 -365.5t257.5 -260.5t361.5 -95 q115 0 228.5 36.5t207.5 102.5q63 45 103.5 90.5t87.5 126.5h51q-53 -107 -106 -168.5t-142 -118.5q-94 -59 -207 -91t-225 -32q-158 0 -300 61t-244.5 164t-163 247t-60.5 303zM502 606q0 -104 44.5 -159.5t129.5 -55.5q101 0 171 65t126 208l57 149q23 60 28 79t5 48v2v2 v2q0 75 -52 127.5t-126 52.5q-93 0 -182.5 -75t-145 -196.5t-55.5 -248.5z" />
<glyph unicode="A" horiz-adv-x="1406" d="M14 0l650 1516h79l650 -1516h-66l-227 528h-793l-227 -528h-66zM334 584h739l-371 874z" />
<glyph unicode="B" horiz-adv-x="1105" d="M158 0v1516h321q215 0 330 -98.5t115 -284.5q0 -79 -27 -144q-24 -64 -65 -104.5t-117 -79.5v-4q102 -35 159 -79.5t97 -119.5q47 -92 47 -201q0 -132 -61.5 -226t-178.5 -140q-88 -35 -241 -35h-379zM219 55h320q180 0 274 64q143 90 143 282q0 113 -53.5 199 t-150.5 129q-51 23 -100.5 30t-157.5 7h-275v-711zM219 821h275q99 0 161 18t109 60q98 82 98 240q0 95 -40 167t-113 109q-46 25 -96.5 35t-133.5 10h-260v-639z" />
<glyph unicode="C" horiz-adv-x="1609" d="M84 758q0 164 60.5 309.5t164.5 249.5t249 164.5t308 60.5q416 0 668 -364h-72q-114 151 -266.5 230t-329.5 79q-151 0 -284.5 -56.5t-229.5 -153t-151.5 -232t-55.5 -287.5t56 -287.5t152.5 -232t231 -153t285.5 -56.5q177 0 330.5 77.5t261.5 223.5h70 q-110 -170 -283.5 -263.5t-380.5 -93.5q-163 0 -308.5 60.5t-249.5 165t-165 250t-61 309.5z" />
<glyph unicode="D" horiz-adv-x="1435" d="M158 0v1516h428q359 0 561.5 -201t202.5 -557t-202.5 -557t-561.5 -201h-428zM219 55h367q330 0 516 186t186 513q0 333 -185.5 519.5t-516.5 186.5h-367v-1405z" />
<glyph unicode="E" horiz-adv-x="1120" d="M158 0v1516h831v-56h-770v-669h770v-56h-770v-680h770v-55h-831z" />
<glyph unicode="F" horiz-adv-x="976" d="M158 0v1516h743v-56h-682v-669h682v-56h-682v-735h-61z" />
<glyph unicode="G" horiz-adv-x="1746" d="M84 758q0 164 61 309.5t165.5 249.5t250 164.5t309.5 60.5q274 0 490 -153q64 -44 106 -88t93 -121h-74q-128 157 -277.5 232t-335.5 75q-152 0 -287 -56t-231.5 -152.5t-152.5 -232t-56 -288.5q0 -152 56 -287.5t152.5 -232t231 -153t285.5 -56.5q137 0 264 44.5 t230 129.5q97 80 152.5 168t87.5 215h-904v55h977q-28 -156 -84 -261t-163 -200q-112 -100 -257 -153.5t-301 -53.5q-220 0 -400.5 103t-284 283t-103.5 399z" />
<glyph unicode="H" horiz-adv-x="1286" d="M158 0v1516h61v-725h848v725h61v-1516h-61v735h-848v-735h-61z" />
<glyph unicode="I" horiz-adv-x="378" d="M158 0v1516h61v-1516h-61z" />
<glyph unicode="J" horiz-adv-x="927" d="M12 289h68q23 -82 52 -127t81 -80q82 -53 176 -53h2h2q98 0 174.5 48t110.5 130q33 82 33 227v1082h61v-1082q0 -117 -15.5 -184t-54.5 -125q-51 -71 -134 -111.5t-179 -40.5q-142 0 -250 88q-51 43 -79.5 94.5t-47.5 133.5z" />
<glyph unicode="K" horiz-adv-x="1097" d="M186 0v1516h62v-1024h4l772 1024h74l-566 -748l566 -768h-74l-530 719l-246 -324v-395h-62z" />
<glyph unicode="L" horiz-adv-x="866" d="M158 0v1516h61v-1461h641v-55h-702z" />
<glyph unicode="M" horiz-adv-x="1910" d="M158 0v1516h98l700 -1418l699 1418h96v-1516h-61v1454h-4l-713 -1454h-35l-715 1454h-4v-1454h-61z" />
<glyph unicode="N" horiz-adv-x="1511" d="M158 0v1516h92l1038 -1434h4v1434h62v-1516h-78l-1053 1454h-4v-1454h-61z" />
<glyph unicode="O" horiz-adv-x="1742" d="M84 758q0 164 61 309.5t165.5 249.5t250 164.5t309.5 60.5q218 0 398.5 -102.5t284.5 -281t104 -394.5q0 -222 -102.5 -403.5t-283 -284.5t-401.5 -103q-164 0 -310 60.5t-250 165t-165 250t-61 309.5zM145 758q0 -152 56 -287.5t152.5 -232t231 -153t285.5 -56.5 q201 0 367.5 95.5t262 261.5t95.5 366q0 154 -55.5 290.5t-152 234t-231 154t-286.5 56.5q-151 0 -285.5 -56.5t-231 -153t-152.5 -232t-56 -287.5z" />
<glyph unicode="P" horiz-adv-x="1046" d="M137 0v1516h352q146 0 229.5 -20t149.5 -71q70 -54 112 -146.5t42 -193.5q0 -102 -41.5 -194t-112.5 -146q-65 -50 -149.5 -70t-229.5 -20h-290v-655h-62zM199 711h293q129 0 207 19t137 65q57 44 91 122t34 166q0 90 -34 169.5t-91 123.5q-59 46 -137 65t-207 19h-293 v-749z" />
<glyph unicode="Q" horiz-adv-x="1806" d="M115 760q0 163 61 308t165 249t250 164.5t310 60.5q220 0 400.5 -103t283.5 -283t103 -400q0 -175 -62.5 -316t-200.5 -276q93 -55 177 -82.5t210 -44.5v-64q-150 20 -234 49t-204 103q-216 -152 -471 -152q-166 0 -312 60.5t-250.5 164.5t-165 250t-60.5 312zM176 754 q0 -133 43 -250q106 35 182 48t168 13q268 0 484 -127q63 -40 323 -237q128 119 189 254.5t61 302.5q0 152 -56 287.5t-152.5 232t-231 153t-285.5 56.5q-152 0 -286.5 -56.5t-231 -153.5t-152 -233t-55.5 -290zM244 444q69 -126 132.5 -195.5t160.5 -123.5q167 -96 368 -96 q233 0 422 135q-22 15 -250 188q-134 85 -253 121.5t-261 36.5q-84 0 -150.5 -14t-168.5 -52z" />
<glyph unicode="R" horiz-adv-x="1134" d="M137 0v1516h346q147 0 235 -12.5t148 -41.5q104 -50 172 -166.5t68 -246.5v-2v-3v-2v-2v-2q0 -195 -130 -330t-317 -135h-59l408 -573h-78l-445 627h95q129 0 195.5 19t139.5 77q69 75 99 149t30 168q0 111 -48.5 209t-131.5 150q-59 37 -133.5 49t-247.5 12h-284v-1460 h-62z" />
<glyph unicode="S" horiz-adv-x="1060" d="M92 383h62q19 -108 51.5 -169.5t97.5 -111.5q98 -73 227 -73q158 0 268.5 106t110.5 260q0 191 -159 287q-75 42 -228 82q-155 41 -225 84q-172 104 -172 297v2v2v2q0 170 115.5 279.5t294.5 109.5q156 0 264 -94q55 -47 83.5 -104t45.5 -154h-62q-31 152 -112 224.5 t-219 72.5q-152 0 -250.5 -92.5t-98.5 -237.5q0 -100 40 -163t133.5 -108.5t269.5 -88.5q166 -41 254 -143t88 -251q0 -178 -129 -303t-312 -125q-83 0 -164 31.5t-141 87.5q-62 57 -91.5 122t-41.5 169z" />
<glyph unicode="T" horiz-adv-x="907" d="M10 1460v56h885v-56h-412v-1460h-61v1460h-412z" />
<glyph unicode="U" horiz-adv-x="1239" d="M156 532v984h61v-984q0 -140 14 -204.5t60 -130.5q54 -80 141 -124t191 -44q90 0 171 37t134 102q57 70 75.5 142t18.5 222v984h61v-984q0 -170 -33 -268t-114 -170q-63 -57 -147.5 -89t-170.5 -32q-146 0 -280 93q-100 72 -141 177.5t-41 288.5z" />
<glyph unicode="V" horiz-adv-x="1363" d="M14 1516h70l598 -1414l600 1414h68l-648 -1516h-43z" />
<glyph unicode="W" horiz-adv-x="1818" d="M25 1516h65l406 -1432h4l387 1432h43l391 -1432h4l406 1432h63l-434 -1516h-80l-371 1354h-4l-366 -1354h-82z" />
<glyph unicode="X" d="M16 0l516 770l-497 746h74l456 -689l461 689h72l-498 -746l520 -770h-71l-484 717l-481 -717h-68z" />
<glyph unicode="Y" horiz-adv-x="1134" d="M31 1516h67l469 -924l467 924h70l-506 -994v-522h-61v522z" />
<glyph unicode="Z" horiz-adv-x="1021" d="M12 1460v56h955l-826 -1461h869v-55h-969l825 1460h-854z" />
<glyph unicode="[" horiz-adv-x="870" d="M365 -31v1045q0 141 43 241q40 92 106.5 156.5t190.5 130.5v-74q-145 -77 -210 -184t-65 -270v-1045q0 -126 39 -217q34 -77 86 -129t150 -106v-74q-92 47 -143.5 87.5t-94.5 98.5q-102 131 -102 340z" />
<glyph unicode="\" horiz-adv-x="1060" d="M137 1516h68l719 -1721h-68z" />
<glyph unicode="]" horiz-adv-x="870" d="M166 -483q145 76 209.5 183t64.5 269v1045q0 128 -39 219q-34 77 -86 129t-149 106v74q92 -47 144 -88t93 -98q103 -135 103 -342v-1045q0 -139 -43 -239q-40 -93 -106 -157t-191 -130v74z" />
<glyph unicode="^" horiz-adv-x="1228" d="M229 768l353 748h65l352 -748h-65l-320 680l-319 -680h-66z" />
<glyph unicode="_" horiz-adv-x="1024" d="M0 -154h1024v-102h-1024v102z" />
<glyph unicode="`" d="M295 1522l29 47l485 -283l-27 -47z" />
<glyph unicode="a" horiz-adv-x="1380" d="M84 543q0 120 43.5 225.5t119 181t181 119t225.5 43.5q171 0 307 -81.5t199 -221.5h4v276h58v-1085h-58v270h-4q-166 -297 -504 -297q-161 0 -291.5 74t-205 204.5t-74.5 291.5zM141 547q0 -226 146 -373t370 -147q218 0 365 147t147 367q0 223 -146.5 370.5 t-367.5 147.5q-145 0 -262.5 -66.5t-184.5 -184t-67 -261.5z" />
<glyph unicode="b" horiz-adv-x="1380" d="M160 0v1516h57v-707h4q160 303 504 303q161 0 291.5 -74t205 -204t74.5 -291t-74.5 -291.5t-205 -204.5t-291.5 -74q-338 0 -504 297h-4v-270h-57zM211 543q0 -221 146 -368.5t366 -147.5q223 0 369.5 146.5t146.5 367.5q0 223 -146.5 370.5t-367.5 147.5 q-220 0 -367 -147.5t-147 -368.5z" />
<glyph unicode="c" horiz-adv-x="1267" d="M84 541q0 244 163 407.5t406 163.5q113 0 215.5 -38.5t180.5 -110.5q52 -47 83.5 -96t63.5 -134h-63q-32 79 -66 127t-88 90q-136 109 -328 109q-218 0 -364 -148.5t-146 -369.5q0 -218 148 -366t368 -148q166 0 290 83t183 232h64q-33 -85 -70 -138.5t-96 -103.5 q-158 -127 -371 -127q-163 0 -294 73.5t-205 203.5t-74 291z" />
<glyph unicode="d" horiz-adv-x="1386" d="M84 543q0 120 43.5 225.5t119 181t181 119t225.5 43.5q171 0 307 -81.5t199 -221.5h4v707h58v-1516h-58v270h-4q-166 -297 -504 -297q-161 0 -291.5 74t-205 204.5t-74.5 291.5zM141 547q0 -226 146 -373t370 -147q218 0 365 147t147 367q0 223 -146.5 370.5 t-367.5 147.5q-145 0 -262.5 -66.5t-184.5 -184t-67 -261.5z" />
<glyph unicode="e" horiz-adv-x="1267" d="M63 541q0 120 44 226t120.5 181.5t183 119.5t226.5 44q114 0 218.5 -41.5t182.5 -116.5q80 -79 119 -167t49 -220v-30h-1083q9 -128 41 -207.5t104 -149.5q72 -72 171.5 -112.5t203.5 -40.5q153 0 269 72.5t188 213.5h63q-42 -87 -82 -138t-102 -95q-147 -107 -342 -107 q-246 0 -410 162t-164 406zM125 590h1022q-10 108 -46 182.5t-108 142.5q-150 144 -352 144q-100 0 -195 -36.5t-165 -102.5q-71 -68 -107 -143t-49 -187z" />
<glyph unicode="f" horiz-adv-x="538" d="M14 1032v53h179v107q0 126 43 197q39 73 105.5 107t190.5 46v-55q-149 -12 -215.5 -80.5t-66.5 -208.5v-113h282v-53h-282v-1032h-57v1032h-179z" />
<glyph unicode="g" horiz-adv-x="1382" d="M82 543q0 160 75 290.5t206.5 204.5t293.5 74q171 0 307 -81.5t199 -221.5h4v276h58v-964q0 -154 -59 -276t-173 -201q-154 -107 -329 -107q-97 0 -197 36.5t-178 100.5q-51 41 -83 83t-67 114h66q39 -64 63 -94t62 -60q149 -127 336 -127q210 0 355.5 152t145.5 369v159 h-6q-163 -297 -502 -297q-163 0 -295 74t-207 204.5t-75 291.5zM139 545q0 -224 148.5 -371t374.5 -147q218 0 365 147t147 367q0 223 -147 370.5t-368 147.5q-146 0 -265.5 -67t-187 -185t-67.5 -262z" />
<glyph unicode="h" horiz-adv-x="1310" d="M160 0v1516h57v-639h4q29 58 60 91t86 66q125 78 290 78q243 0 370.5 -138t127.5 -401v-573h-57v573q0 238 -112 362t-327 124q-207 0 -324.5 -115.5t-117.5 -318.5v-625h-57z" />
<glyph unicode="i" horiz-adv-x="376" d="M160 0v1085h57v-1085h-57zM160 1329v187h57v-187h-57z" />
<glyph unicode="j" horiz-adv-x="448" d="M-29 -375q132 26 178 105.5t46 281.5v1073h57v-1073q0 -118 -10.5 -185t-36.5 -118q-33 -64 -85.5 -96t-148.5 -49v61zM195 1327v189h57v-189h-57z" />
<glyph unicode="k" horiz-adv-x="956" d="M160 0v1516h57v-1219h4l592 788h76l-402 -530l437 -555h-76l-397 510l-234 -311v-199h-57z" />
<glyph unicode="l" horiz-adv-x="374" d="M160 0v1516h57v-1516h-57z" />
<glyph unicode="m" horiz-adv-x="1943" d="M160 0v1085h57v-192h4q38 68 73 104.5t89 65.5q91 49 203 49q138 0 244 -71.5t143 -188.5h4q40 117 148.5 188.5t246.5 71.5q204 0 311 -128.5t107 -375.5v-608h-57v608q0 223 -91.5 337t-269.5 114q-184 0 -285 -125q-49 -60 -66 -127t-17 -199v-608h-58v608 q0 111 -14.5 179.5t-48.5 123.5q-46 69 -126.5 108.5t-176.5 39.5q-164 0 -263.5 -120.5t-99.5 -320.5v-618h-57z" />
<glyph unicode="n" horiz-adv-x="1312" d="M160 0v1085h57v-208h4q29 58 60 91t86 66q125 78 290 78q243 0 370.5 -138t127.5 -401v-573h-57v573q0 238 -112 362t-327 124q-207 0 -324.5 -115.5t-117.5 -318.5v-625h-57z" />
<glyph unicode="o" horiz-adv-x="1312" d="M84 543q0 243 163.5 406t407.5 163q160 0 291 -74t206 -204t75 -287q0 -247 -163 -410.5t-409 -163.5q-161 0 -291.5 74t-205 204.5t-74.5 291.5zM141 543q0 -221 147 -368.5t367 -147.5q218 0 366 147t148 365q0 224 -146.5 372t-367.5 148q-220 0 -367 -147.5 t-147 -368.5z" />
<glyph unicode="p" horiz-adv-x="1386" d="M160 -436v1521h57v-270h4q166 297 504 297q161 0 291.5 -74t205 -204t74.5 -291q0 -160 -74 -290.5t-204.5 -205t-290.5 -74.5q-171 0 -307 81.5t-199 221.5h-4v-712h-57zM211 543q0 -221 147 -368.5t367 -147.5q218 0 366 146.5t148 361.5q0 229 -146 376.5t-370 147.5 q-220 0 -366 -147.5t-146 -368.5z" />
<glyph unicode="q" horiz-adv-x="1380" d="M84 543q0 161 74.5 291t205 204t291.5 74q338 0 504 -297h4v270h58v-1521h-58v712h-4q-63 -140 -199 -221.5t-307 -81.5q-160 0 -290.5 74.5t-204.5 205t-74 290.5zM141 539q0 -144 67 -261.5t184.5 -184t262.5 -66.5q218 0 366 147t148 365q0 224 -145.5 372t-366.5 148 q-224 0 -370 -147t-146 -373z" />
<glyph unicode="r" horiz-adv-x="618" d="M160 0v1085h57v-196h4q56 110 145 163t234 60v-55q-74 -2 -127 -18.5t-111 -57.5q-84 -81 -114.5 -163.5t-30.5 -229.5v-588h-57z" />
<glyph unicode="s" horiz-adv-x="872" d="M98 281v20h58q3 -72 20 -117t55 -82q75 -75 199 -75q114 0 188 72.5t74 183.5v2v2v2v2q0 141 -112 203q-38 22 -66 31.5t-141 41.5q-121 31 -178.5 95.5t-57.5 168.5q0 126 80.5 203.5t212.5 77.5q136 0 213 -80q38 -38 55.5 -84t20.5 -119h-57q-3 68 -19.5 107.5 t-54.5 71.5q-60 51 -158 51q-107 0 -171 -61t-64 -162q0 -122 102 -177q33 -19 61.5 -28.5t124.5 -36.5q136 -37 201.5 -109t65.5 -186v-4v-4v-4v-4v-2q0 -129 -92.5 -218.5t-225.5 -89.5q-141 0 -237.5 89t-96.5 219z" />
<glyph unicode="t" horiz-adv-x="606" d="M14 1032v53h240v431h57v-431h279v-53h-279v-1032h-57v1032h-240z" />
<glyph unicode="u" horiz-adv-x="1312" d="M160 512v573h57v-573q0 -238 111 -361.5t325 -123.5q209 0 327 117.5t118 324.5v616h57v-1085h-57v219h-4q-117 -246 -437 -246q-243 0 -370 138t-127 401z" />
<glyph unicode="v" horiz-adv-x="985" d="M8 1085h60l424 -1017l417 1017h66l-447 -1085h-73z" />
<glyph unicode="w" horiz-adv-x="1552" d="M20 1085h64l367 -999h4l301 852h43l301 -852h4l364 999h66l-401 -1085h-66l-291 823h-4l-287 -823h-65z" />
<glyph unicode="x" horiz-adv-x="833" d="M20 0l363 545l-363 540h74l324 -485l325 485h70l-360 -540l360 -545h-70l-325 489l-324 -489h-74z" />
<glyph unicode="y" horiz-adv-x="985" d="M23 1085h63l401 -1005l428 1005h68l-657 -1521h-66l193 438z" />
<glyph unicode="z" horiz-adv-x="833" d="M25 0v49l673 983h-637v53h711v-55l-674 -977h709v-53h-782z" />
<glyph unicode="{" horiz-adv-x="870" d="M236 457v57q78 26 121.5 129.5t43.5 263.5v383q0 138 38 195t130 57h136v-53h-111q-78 0 -102.5 -45t-24.5 -191v-379q0 -156 -66 -282q-25 -41 -44 -62t-56 -45q80 -43 123 -139.5t43 -234.5v-375q0 -105 10 -154t36 -67.5t81 -18.5h111v-53h-136q-91 0 -129.5 59.5 t-38.5 198.5v375q0 164 -35.5 246t-129.5 135z" />
<glyph unicode="|" d="M539 -205v1721h61v-1721h-61z" />
<glyph unicode="}" horiz-adv-x="870" d="M166 -504h110q55 0 81 18.5t36 67.5t10 154v375q0 138 43 234.5t123 139.5q-43 28 -67 57t-47 81q-52 113 -52 251v379q0 148 -23.5 192t-103.5 44h-110v53h135q92 0 130 -57t38 -195v-383q0 -159 44 -263t122 -130v-57q-94 -53 -130 -135t-36 -246v-375 q0 -141 -38 -199.5t-130 -58.5h-135v53z" />
<glyph unicode="~" horiz-adv-x="1228" d="M156 469q86 147 237 147h4h2h4h3q79 0 270 -88q130 -61 186 -61q47 0 85 28t85 99l39 -39q-86 -145 -207 -145q-42 0 -88.5 14.5t-140.5 58.5q-162 76 -229 76h-3h-2h-4h-2q-66 0 -111.5 -29t-88.5 -98z" />
<glyph unicode="&#xa1;" horiz-adv-x="530" d="M236 -428v1176h61v-1176h-61zM236 920v165h61v-165h-61z" />
<glyph unicode="&#xa2;" d="M139 758q0 85 32 167.5t89 143.5q58 64 127 96t180 47v195h62v-197q135 -15 223 -75t145 -174h-67q-60 101 -139.5 146.5t-194.5 45.5q-170 0 -282.5 -111t-112.5 -280q0 -175 110.5 -288.5t282.5 -113.5q112 0 198.5 47.5t137.5 135.5h69q-56 -107 -151.5 -170 t-218.5 -72v-221h-62v221q-106 12 -173 42.5t-128 94.5q-60 63 -93.5 147.5t-33.5 172.5z" />
<glyph unicode="&#xa3;" d="M12 750v55h176q-84 112 -84 256q0 204 139.5 341.5t346.5 137.5q174 0 303 -102q66 -51 105.5 -113t68.5 -160h-63q-51 152 -158 236t-250 84h-2h-2q-185 0 -305.5 -121.5t-120.5 -308.5v-2v-2v-2q0 -128 102 -244h559v-55h-499v-5q213 -160 213 -397q0 -77 -21.5 -145.5 t-70.5 -147.5h188q114 0 178.5 17t114.5 59q125 112 125 279q0 36 -15 100h64q12 -52 12 -98q0 -82 -28.5 -157.5t-79.5 -131.5q-68 -72 -146.5 -97.5t-234.5 -25.5h-553v55h303q1 2 10 17q92 129 92 278q0 116 -52.5 205.5t-184.5 194.5h-230z" />
<glyph unicode="&#xa4;" d="M80 1143l43 43l158 -158q131 111 286 111q154 0 287 -109l156 156l45 -43l-156 -158q109 -130 109 -283q0 -157 -115 -286l158 -158l-43 -43l-156 156q-137 -105 -285 -105q-150 0 -284 105l-158 -156l-41 43l158 158q-115 132 -115 286t111 283zM188 700 q0 -150 113 -261t266 -111q155 0 267 111t112 263q0 154 -111.5 264.5t-267.5 110.5q-155 0 -267 -110.5t-112 -264.5v-2z" />
<glyph unicode="&#xa5;" d="M66 1516h65l434 -717l443 717h65l-418 -678h387v-54h-419l-27 -53v-168h446v-53h-446v-510h-61v510h-439v53h439v168l-29 53h-410v54h379z" />
<glyph unicode="&#xa6;" d="M539 -205v688h61v-688h-61zM539 827v689h61v-689h-61z" />
<glyph unicode="&#xa7;" horiz-adv-x="1173" d="M123 655q0 206 207 322q-94 87 -94 221q0 154 102 249t266 95q196 0 297 -119q39 -46 55 -94t19 -129h-57q-10 89 -33 138t-70 85q-73 58 -205 58q-145 0 -231 -75.5t-86 -201.5q0 -94 44.5 -150.5t162.5 -111.5l307 -145q125 -60 184.5 -137.5t59.5 -180.5 q0 -194 -195 -317q76 -57 109.5 -117.5t33.5 -142.5q0 -157 -114.5 -259t-292.5 -102q-123 0 -223 47q-211 93 -211 346v66h57v-63q0 -154 100.5 -244t272.5 -90q157 0 255.5 82.5t98.5 214.5q0 85 -51.5 148t-161.5 114l-399 184q-106 50 -156.5 125t-50.5 184zM180 657 q0 -83 41.5 -147.5t116.5 -99.5l461 -213q88 43 141 119.5t53 162.5q0 89 -47.5 147t-167.5 117l-405 195q-193 -100 -193 -281z" />
<glyph unicode="&#xa8;" d="M416 1266v237h59v-237h-59zM662 1266v237h59v-237h-59z" />
<glyph unicode="&#xa9;" horiz-adv-x="1638" d="M37 756q0 163 60.5 308t164.5 249t249 164.5t308 60.5q216 0 395 -102.5t282 -280.5t103 -393q0 -164 -60.5 -309.5t-164.5 -250t-249 -165t-308 -60.5t-308 60.5t-248.5 164t-163.5 248t-60 306.5zM94 758q0 -151 56.5 -286t153 -231.5t230.5 -153t285 -56.5 q149 0 283 56.5t230.5 152.5t153 229.5t56.5 282.5q0 205 -94.5 373t-260.5 264t-368 96q-151 0 -285.5 -56.5t-231 -153t-152.5 -231.5t-56 -286zM389 754q0 213 122.5 345t319.5 132q168 0 287 -101q47 -43 72.5 -89.5t38.5 -116.5h-58q-17 65 -39 102.5t-61 71.5 q-96 80 -240 80q-172 0 -278.5 -116.5t-106.5 -305.5q0 -186 105.5 -301t275.5 -115q77 0 147.5 28t117.5 78q42 42 63.5 90.5t34.5 135.5h57q-12 -98 -40.5 -159.5t-86.5 -115.5q-116 -110 -293 -110q-194 0 -316 130t-122 337z" />
<glyph unicode="&#xaa;" horiz-adv-x="958" d="M74 1186q0 149 107.5 252.5t262.5 103.5q104 0 187 -51t123 -139h4v174h57v-682h-57v170h-4q-34 -85 -117.5 -136t-187.5 -51q-160 0 -267.5 103.5t-107.5 255.5zM131 1182q0 -126 91.5 -213.5t223.5 -87.5q131 0 221.5 87t90.5 214q0 128 -92 217.5t-222 89.5 q-132 0 -222.5 -89t-90.5 -218z" />
<glyph unicode="&#xab;" horiz-adv-x="718" d="M100 565l228 396l41 -54l-197 -342l197 -340l-41 -53zM328 565l229 396l39 -54l-197 -342l197 -340l-39 -53z" />
<glyph unicode="&#xac;" horiz-adv-x="1228" d="M102 682v57h1024v-454h-57v397h-967z" />
<glyph unicode="&#xad;" horiz-adv-x="544" d="M0 537v59h545v-59h-545z" />
<glyph unicode="&#xae;" horiz-adv-x="1638" d="M37 756q0 163 60.5 308t164.5 249t249 164.5t308 60.5q216 0 395 -102.5t282 -280.5t103 -393q0 -164 -60.5 -309.5t-164.5 -250t-249 -165t-308 -60.5t-308 60.5t-248.5 164t-163.5 248t-60 306.5zM94 758q0 -151 56.5 -286t153 -231.5t230.5 -153t285 -56.5 q149 0 283 56.5t230.5 152.5t153 229.5t56.5 282.5q0 205 -94.5 373t-260.5 264t-368 96q-151 0 -285.5 -56.5t-231 -153t-152.5 -231.5t-56 -286zM481 299v907h379q151 0 232.5 -62t81.5 -179q0 -168 -177 -224v-4q94 -25 125.5 -77t36.5 -187q6 -96 10.5 -125t16.5 -49 h-60q-9 12 -12 38t-8 114q-6 93 -12 125t-21 59q-46 76 -244 76h-290v-412h-58zM539 764h286l27 2q138 10 201 57.5t63 139.5q0 97 -65.5 143.5t-200.5 46.5h-311v-389z" />
<glyph unicode="&#xaf;" d="M203 1352v61h729v-61h-729z" />
<glyph unicode="&#xb0;" horiz-adv-x="819" d="M117 1159q0 123 85 208t208 85t207.5 -84.5t84.5 -206.5q0 -125 -84 -210t-208 -85q-123 0 -208 85t-85 208zM174 1159q0 -100 68 -167.5t168 -67.5q98 0 166.5 67.5t68.5 165.5q0 101 -67.5 169.5t-167.5 68.5t-168 -68t-68 -168z" />
<glyph unicode="&#xb1;" horiz-adv-x="1228" d="M98 0v57h1032v-57h-1032zM98 575v58h488v403h57v-403h487v-58h-487v-403h-57v403h-488z" />
<glyph unicode="&#xb2;" horiz-adv-x="718" d="M74 606v47l379 396q60 63 86 113t26 104q0 99 -56.5 157t-152.5 58q-93 0 -152 -65.5t-59 -168.5v-18h-57v16q0 126 77 206.5t197 80.5q117 0 189 -73t72 -191q0 -66 -29 -123t-102 -133l-338 -355h475v-51h-555z" />
<glyph unicode="&#xb3;" horiz-adv-x="718" d="M68 881h57q4 -64 19.5 -102.5t48.5 -71.5q63 -66 163 -66q98 0 161 63.5t63 161.5q0 102 -69 168t-175 66h-55v51h55q85 0 135.5 45.5t50.5 120.5q0 71 -47 117.5t-117 46.5q-71 0 -114 -44t-49 -122h-58q6 56 20.5 90t45.5 65q65 62 159 62q91 0 154.5 -62.5 t63.5 -152.5q0 -125 -117 -189q174 -79 174 -256q0 -123 -80 -202.5t-203 -79.5q-122 0 -204 82q-40 40 -59 87.5t-23 121.5z" />
<glyph unicode="&#xb4;" d="M328 1286l485 283l29 -47l-488 -283z" />
<glyph unicode="&#xb5;" horiz-adv-x="1148" d="M150 -371v1456h57v-614q0 -124 14 -190t51 -119q94 -135 281 -135q185 0 283 140t98 402v516h57v-1085h-57v244h-4q-47 -138 -139.5 -204.5t-237.5 -66.5q-121 0 -203.5 45t-138.5 140h-4v-529h-57z" />
<glyph unicode="&#xb6;" horiz-adv-x="1148" d="M25 1106q0 106 50 199.5t134 144.5q113 66 295 66h504v-58h-131v-1716h-62v1712h-264v-1712h-62v960h-40q-186 0 -305 113.5t-119 290.5z" />
<glyph unicode="&#xb7;" horiz-adv-x="567" d="M254 440v166h61v-166h-61z" />
<glyph unicode="&#xb8;" d="M418 -285h55q23 -71 94 -71q41 0 69 28t28 70q0 40 -27.5 67t-67.5 27q-50 0 -84 -51l-45 10l95 205h59l-53 -115l4 -2q15 6 28 6q62 0 104 -42t42 -103q0 -67 -42.5 -111.5t-107.5 -44.5q-124 0 -151 127z" />
<glyph unicode="&#xb9;" horiz-adv-x="505" d="M39 1464v52h252v-910h-58v858h-194z" />
<glyph unicode="&#xba;" horiz-adv-x="866" d="M74 1180q0 154 102.5 258t253.5 104q154 0 258.5 -102.5t104.5 -251.5q0 -151 -105.5 -256t-257.5 -105q-148 0 -252 103.5t-104 249.5zM131 1182q0 -124 88 -212.5t211 -88.5q126 0 215.5 88.5t89.5 214.5q0 129 -87 217t-214 88q-129 0 -216 -88t-87 -219z" />
<glyph unicode="&#xbb;" horiz-adv-x="718" d="M123 225l196 340l-196 342l39 54l229 -396l-229 -393zM350 225l197 340l-197 342l41 54l227 -396l-227 -393z" />
<glyph unicode="&#xbc;" horiz-adv-x="1433" d="M51 1464v52h252v-910h-57v858h-195zM252 0l674 1516h61l-676 -1516h-59zM694 174v43l457 692h68v-684h86v-51h-86v-174h-58v174h-467zM764 225h397v609h-2z" />
<glyph unicode="&#xbd;" horiz-adv-x="1495" d="M51 1464v52h252v-910h-57v858h-195zM252 0l674 1518h61l-676 -1518h-59zM852 0v47l379 395q60 63 86 113t26 104q0 99 -56 157t-152 58q-94 0 -152.5 -65t-58.5 -168v-18h-58v16q0 126 77.5 206.5t197.5 80.5q117 0 188.5 -72.5t71.5 -191.5q0 -66 -29 -123t-102 -133 l-338 -355h475v-51h-555z" />
<glyph unicode="&#xbe;" horiz-adv-x="1652" d="M82 881h57q4 -64 19.5 -102.5t48.5 -71.5q63 -66 164 -66q98 0 160.5 63.5t62.5 161.5q0 102 -69 168t-175 66h-55v51h55q85 0 136 45.5t51 120.5q0 71 -46.5 117.5t-117.5 46.5t-114.5 -44t-49.5 -122h-57q6 57 20 90.5t45 64.5q65 62 160 62q91 0 154 -62t63 -153 q0 -125 -117 -189q174 -79 174 -256q0 -123 -79.5 -202.5t-202.5 -79.5t-205 82q-40 40 -59 87.5t-23 121.5zM512 0l674 1513h61l-676 -1513h-59zM956 174v43l457 692h68v-684h86v-51h-86v-174h-58v174h-467zM1026 225h397v609h-2z" />
<glyph unicode="&#xbf;" horiz-adv-x="1097" d="M141 -33q0 101 47.5 179t196.5 223q85 82 119.5 164t34.5 202v10h61q-3 -156 -48.5 -252t-176.5 -221q-101 -97 -136.5 -159.5t-35.5 -145.5q0 -152 106.5 -255t263.5 -103q77 0 150 28t125 78q51 50 75 107.5t31 150.5h62q-10 -112 -38.5 -179t-88.5 -126 q-60 -57 -144.5 -90t-171.5 -33q-178 0 -305 124t-127 298zM541 920v165h59v-165h-59z" />
<glyph unicode="&#xc0;" horiz-adv-x="1406" d="M14 0l650 1516h79l650 -1516h-66l-227 528h-793l-227 -528h-66zM334 584h739l-371 874zM430 1901l29 47l485 -283l-26 -47z" />
<glyph unicode="&#xc1;" horiz-adv-x="1406" d="M14 0l650 1516h79l650 -1516h-66l-227 528h-793l-227 -528h-66zM334 584h739l-371 874zM463 1665l485 283l29 -47l-488 -283z" />
<glyph unicode="&#xc2;" horiz-adv-x="1406" d="M14 0l650 1516h79l650 -1516h-66l-227 528h-793l-227 -528h-66zM303 1686l399 225l402 -225l-53 -31l-349 192l-348 -192zM334 584h739l-371 874z" />
<glyph unicode="&#xc3;" horiz-adv-x="1406" d="M14 0l650 1516h79l650 -1516h-66l-227 528h-793l-227 -528h-66zM332 1790q50 39 96 55.5t107 16.5q45 0 82 -11.5t116 -50.5q82 -43 154 -43q38 0 68 9.5t77 37.5l41 -43q-100 -65 -186 -65q-53 0 -95 13t-118 54q-75 41 -137 41q-91 0 -164 -55zM334 584h739l-371 874z " />
<glyph unicode="&#xc4;" horiz-adv-x="1406" d="M14 0l650 1516h79l650 -1516h-66l-227 528h-793l-227 -528h-66zM334 584h739l-371 874zM551 1645v237h59v-237h-59zM797 1645v237h59v-237h-59z" />
<glyph unicode="&#xc5;" horiz-adv-x="1406" d="M14 0l650 1516h79l650 -1516h-66l-227 528h-793l-227 -528h-66zM334 584h739l-371 874zM516 1733q0 77 55 131.5t131 54.5q78 0 133.5 -54.5t55.5 -129.5q0 -78 -55.5 -133.5t-133.5 -55.5q-76 0 -131 55t-55 132zM573 1735q0 -54 37.5 -91.5t91.5 -37.5t93 37.5t39 91.5 q0 55 -38 93t-94 38q-54 0 -91.5 -38.5t-37.5 -92.5z" />
<glyph unicode="&#xc6;" horiz-adv-x="1933" d="M-16 0l1048 1516h750v-56h-647v-669h647v-56h-647v-680h647v-55h-709v541h-645l-375 -541h-69zM473 596h600v883h-4z" />
<glyph unicode="&#xc7;" horiz-adv-x="1609" d="M84 758q0 164 60.5 309.5t164.5 249.5t249 164.5t308 60.5q416 0 668 -364h-72q-114 151 -266.5 230t-329.5 79q-151 0 -284.5 -56.5t-229.5 -153t-151.5 -232t-55.5 -287.5t56 -287.5t152.5 -232t231 -153t285.5 -56.5q177 0 330.5 77.5t261.5 223.5h70 q-95 -158 -269.5 -255t-371.5 -102l-41 -88l4 -2q15 6 29 6q61 0 103 -41.5t42 -103.5q0 -68 -42.5 -112t-106.5 -44q-125 0 -152 127h55q23 -71 95 -71q41 0 68.5 27.5t27.5 70.5q0 40 -27 67t-67 27q-50 0 -84 -51l-45 10l81 180q-135 12 -216 36.5t-169 80.5 q-172 106 -267 281.5t-95 384.5z" />
<glyph unicode="&#xc8;" horiz-adv-x="1120" d="M158 0v1516h831v-56h-770v-669h770v-56h-770v-680h770v-55h-831zM287 1901l28 47l486 -283l-27 -47z" />
<glyph unicode="&#xc9;" horiz-adv-x="1120" d="M158 0v1516h831v-56h-770v-669h770v-56h-770v-680h770v-55h-831zM319 1665l486 283l29 -47l-488 -283z" />
<glyph unicode="&#xca;" horiz-adv-x="1120" d="M158 0v1516h831v-56h-770v-669h770v-56h-770v-680h770v-55h-831zM160 1686l399 225l402 -225l-54 -31l-348 192l-348 -192z" />
<glyph unicode="&#xcb;" horiz-adv-x="1120" d="M158 0v1516h831v-56h-770v-669h770v-56h-770v-680h770v-55h-831zM408 1645v237h59v-237h-59zM653 1645v237h60v-237h-60z" />
<glyph unicode="&#xcc;" horiz-adv-x="378" d="M-125 1901l29 47l485 -283l-27 -47zM158 0v1516h61v-1516h-61z" />
<glyph unicode="&#xcd;" horiz-adv-x="378" d="M-10 1665l485 283l29 -47l-488 -283zM158 0v1516h61v-1516h-61z" />
<glyph unicode="&#xce;" horiz-adv-x="378" d="M-211 1686l399 225l402 -225l-53 -31l-349 192l-348 -192zM158 0v1516h61v-1516h-61z" />
<glyph unicode="&#xcf;" horiz-adv-x="378" d="M37 1645v237h59v-237h-59zM158 0v1516h61v-1516h-61zM283 1645v237h59v-237h-59z" />
<glyph unicode="&#xd0;" horiz-adv-x="1456" d="M20 735v56h158v725h428q359 0 561.5 -201t202.5 -557t-202.5 -557t-561.5 -201h-428v735h-158zM240 55h366q330 0 516.5 186t186.5 513q0 333 -185.5 519.5t-517.5 186.5h-366v-669h514v-56h-514v-680z" />
<glyph unicode="&#xd1;" horiz-adv-x="1511" d="M158 0v1516h92l1038 -1434h4v1434h62v-1516h-78l-1053 1454h-4v-1454h-61zM385 1790q50 39 96 55.5t107 16.5q45 0 82 -11.5t116 -50.5q82 -43 154 -43q38 0 68 9.5t77 37.5l41 -43q-100 -65 -186 -65q-53 0 -95 13t-118 54q-75 41 -137 41q-91 0 -164 -55z" />
<glyph unicode="&#xd2;" horiz-adv-x="1742" d="M84 758q0 164 61 309.5t165.5 249.5t250 164.5t309.5 60.5q218 0 398.5 -102.5t284.5 -281t104 -394.5q0 -222 -102.5 -403.5t-283 -284.5t-401.5 -103q-164 0 -310 60.5t-250 165t-165 250t-61 309.5zM145 758q0 -152 56 -287.5t152.5 -232t231 -153t285.5 -56.5 q201 0 367.5 95.5t262 261.5t95.5 366q0 154 -55.5 290.5t-152 234t-231 154t-286.5 56.5q-151 0 -285.5 -56.5t-231 -153t-152.5 -232t-56 -287.5zM598 1901l29 47l485 -283l-27 -47z" />
<glyph unicode="&#xd3;" horiz-adv-x="1742" d="M84 758q0 164 61 309.5t165.5 249.5t250 164.5t309.5 60.5q218 0 398.5 -102.5t284.5 -281t104 -394.5q0 -222 -102.5 -403.5t-283 -284.5t-401.5 -103q-164 0 -310 60.5t-250 165t-165 250t-61 309.5zM145 758q0 -152 56 -287.5t152.5 -232t231 -153t285.5 -56.5 q201 0 367.5 95.5t262 261.5t95.5 366q0 154 -55.5 290.5t-152 234t-231 154t-286.5 56.5q-151 0 -285.5 -56.5t-231 -153t-152.5 -232t-56 -287.5zM631 1665l485 283l29 -47l-488 -283z" />
<glyph unicode="&#xd4;" horiz-adv-x="1742" d="M84 758q0 164 61 309.5t165.5 249.5t250 164.5t309.5 60.5q218 0 398.5 -102.5t284.5 -281t104 -394.5q0 -222 -102.5 -403.5t-283 -284.5t-401.5 -103q-164 0 -310 60.5t-250 165t-165 250t-61 309.5zM145 758q0 -152 56 -287.5t152.5 -232t231 -153t285.5 -56.5 q201 0 367.5 95.5t262 261.5t95.5 366q0 154 -55.5 290.5t-152 234t-231 154t-286.5 56.5q-151 0 -285.5 -56.5t-231 -153t-152.5 -232t-56 -287.5zM471 1686l399 225l402 -225l-53 -31l-349 192l-348 -192z" />
<glyph unicode="&#xd5;" horiz-adv-x="1742" d="M84 758q0 164 61 309.5t165.5 249.5t250 164.5t309.5 60.5q218 0 398.5 -102.5t284.5 -281t104 -394.5q0 -222 -102.5 -403.5t-283 -284.5t-401.5 -103q-164 0 -310 60.5t-250 165t-165 250t-61 309.5zM145 758q0 -152 56 -287.5t152.5 -232t231 -153t285.5 -56.5 q201 0 367.5 95.5t262 261.5t95.5 366q0 154 -55.5 290.5t-152 234t-231 154t-286.5 56.5q-151 0 -285.5 -56.5t-231 -153t-152.5 -232t-56 -287.5zM500 1790q50 39 95.5 55.5t106.5 16.5q45 0 83 -12t116 -50q82 -43 154 -43q38 0 68 9.5t77 37.5l41 -43q-100 -65 -186 -65 q-53 0 -95 13t-118 54q-75 41 -137 41q-91 0 -164 -55z" />
<glyph unicode="&#xd6;" horiz-adv-x="1742" d="M84 758q0 164 61 309.5t165.5 249.5t250 164.5t309.5 60.5q218 0 398.5 -102.5t284.5 -281t104 -394.5q0 -222 -102.5 -403.5t-283 -284.5t-401.5 -103q-164 0 -310 60.5t-250 165t-165 250t-61 309.5zM145 758q0 -152 56 -287.5t152.5 -232t231 -153t285.5 -56.5 q201 0 367.5 95.5t262 261.5t95.5 366q0 154 -55.5 290.5t-152 234t-231 154t-286.5 56.5q-151 0 -285.5 -56.5t-231 -153t-152.5 -232t-56 -287.5zM719 1645v237h59v-237h-59zM965 1645v237h59v-237h-59z" />
<glyph unicode="&#xd7;" horiz-adv-x="1228" d="M102 47l469 467l-469 463l41 45l471 -467l471 467l41 -45l-469 -463l469 -467l-41 -43l-471 469l-471 -469z" />
<glyph unicode="&#xd8;" horiz-adv-x="1742" d="M84 758q0 164 61 309.5t165.5 249.5t250 164.5t309.5 60.5q242 0 449 -133l180 248l49 -37l-180 -248q289 -249 289 -612q0 -165 -60.5 -311t-165 -250.5t-250.5 -165t-311 -60.5q-231 0 -430 125l-200 -274l-47 37l196 270q-305 247 -305 627zM145 758q0 -352 279 -580 l860 1184q-196 125 -414 125q-151 0 -285.5 -56.5t-231 -153t-152.5 -232t-56 -287.5zM475 145q184 -116 395 -116q151 0 285.5 56.5t231 153t152.5 232t56 287.5q0 338 -262 567z" />
<glyph unicode="&#xd9;" horiz-adv-x="1239" d="M156 532v984h61v-984q0 -140 14 -204.5t60 -130.5q54 -80 141 -124t191 -44q90 0 171 37t134 102q57 70 75.5 142t18.5 222v984h61v-984q0 -170 -33 -268t-114 -170q-63 -57 -147.5 -89t-170.5 -32q-146 0 -280 93q-100 72 -141 177.5t-41 288.5zM346 1901l29 47 l485 -283l-26 -47z" />
<glyph unicode="&#xda;" horiz-adv-x="1239" d="M156 532v984h61v-984q0 -140 14 -204.5t60 -130.5q54 -80 141 -124t191 -44q90 0 171 37t134 102q57 70 75.5 142t18.5 222v984h61v-984q0 -170 -33 -268t-114 -170q-63 -57 -147.5 -89t-170.5 -32q-146 0 -280 93q-100 72 -141 177.5t-41 288.5zM379 1665l485 283 l29 -47l-487 -283z" />
<glyph unicode="&#xdb;" horiz-adv-x="1239" d="M156 532v984h61v-984q0 -140 14 -204.5t60 -130.5q54 -80 141 -124t191 -44q90 0 171 37t134 102q57 70 75.5 142t18.5 222v984h61v-984q0 -170 -33 -268t-114 -170q-63 -57 -147.5 -89t-170.5 -32q-146 0 -280 93q-100 72 -141 177.5t-41 288.5zM219 1686l399 225 l402 -225l-53 -31l-349 192l-348 -192z" />
<glyph unicode="&#xdc;" horiz-adv-x="1239" d="M156 532v984h61v-984q0 -140 14 -204.5t60 -130.5q54 -80 141 -124t191 -44q90 0 171 37t134 102q57 70 75.5 142t18.5 222v984h61v-984q0 -170 -33 -268t-114 -170q-63 -57 -147.5 -89t-170.5 -32q-146 0 -280 93q-100 72 -141 177.5t-41 288.5zM467 1645v237h59v-237 h-59zM713 1645v237h59v-237h-59z" />
<glyph unicode="&#xdd;" horiz-adv-x="1134" d="M31 1516h67l469 -924l467 924h70l-506 -994v-522h-61v522zM328 1665l485 283l29 -47l-488 -283z" />
<glyph unicode="&#xde;" horiz-adv-x="1046" d="M137 0v1516h62v-320h290q153 0 232.5 -19t146.5 -71q71 -56 112.5 -147.5t41.5 -192.5q0 -102 -41.5 -193t-112.5 -147q-67 -52 -146.5 -71t-232.5 -19h-290v-336h-62zM199 391h293q132 0 209.5 19t134.5 65t91 125t34 164q0 88 -34 167.5t-91 125.5t-135.5 65t-208.5 19 h-293v-750z" />
<glyph unicode="&#xdf;" horiz-adv-x="1144" d="M156 0v967q0 158 14 243t51 146q52 87 139.5 135.5t192.5 48.5q177 0 286 -110t109 -289q0 -139 -74 -246q-30 -42 -62 -68t-91 -53v-4q88 -17 142.5 -45t99.5 -80q96 -113 96 -266q0 -172 -117 -289t-287 -117q-189 0 -301 127q-49 55 -71 117.5t-33 173.5h57 q9 -110 37.5 -174t91.5 -115q90 -75 228 -75q142 0 239.5 99.5t97.5 244.5q0 176 -129 280q-56 44 -124 62t-185 18h-57v53h55q137 0 233.5 104.5t96.5 252.5q0 157 -92 251.5t-244 94.5q-83 0 -153 -34t-113 -95q-45 -65 -60.5 -144.5t-15.5 -246.5v-967h-57z" />
<glyph unicode="&#xe0;" horiz-adv-x="1380" d="M84 543q0 120 43.5 225.5t119 181t181 119t225.5 43.5q171 0 307 -81.5t199 -221.5h4v276h58v-1085h-58v270h-4q-166 -297 -504 -297q-161 0 -291.5 74t-205 204.5t-74.5 291.5zM141 547q0 -226 146 -373t370 -147q218 0 365 147t147 367q0 223 -146.5 370.5 t-367.5 147.5q-145 0 -262.5 -66.5t-184.5 -184t-67 -261.5zM377 1522l29 47l485 -283l-27 -47z" />
<glyph unicode="&#xe1;" horiz-adv-x="1380" d="M84 543q0 120 43.5 225.5t119 181t181 119t225.5 43.5q171 0 307 -81.5t199 -221.5h4v276h58v-1085h-58v270h-4q-166 -297 -504 -297q-161 0 -291.5 74t-205 204.5t-74.5 291.5zM141 547q0 -226 146 -373t370 -147q218 0 365 147t147 367q0 223 -146.5 370.5 t-367.5 147.5q-145 0 -262.5 -66.5t-184.5 -184t-67 -261.5zM440 1286l486 283l28 -47l-487 -283z" />
<glyph unicode="&#xe2;" horiz-adv-x="1380" d="M84 543q0 120 43.5 225.5t119 181t181 119t225.5 43.5q171 0 307 -81.5t199 -221.5h4v276h58v-1085h-58v270h-4q-166 -297 -504 -297q-161 0 -291.5 74t-205 204.5t-74.5 291.5zM141 547q0 -226 146 -373t370 -147q218 0 365 147t147 367q0 223 -146.5 370.5 t-367.5 147.5q-145 0 -262.5 -66.5t-184.5 -184t-67 -261.5zM291 1307l399 225l402 -225l-54 -31l-348 192l-348 -192z" />
<glyph unicode="&#xe3;" horiz-adv-x="1380" d="M84 543q0 120 43.5 225.5t119 181t181 119t225.5 43.5q171 0 307 -81.5t199 -221.5h4v276h58v-1085h-58v270h-4q-166 -297 -504 -297q-161 0 -291.5 74t-205 204.5t-74.5 291.5zM141 547q0 -226 146 -373t370 -147q218 0 365 147t147 367q0 223 -146.5 370.5 t-367.5 147.5q-145 0 -262.5 -66.5t-184.5 -184t-67 -261.5zM319 1391q50 39 96 55t107 16q46 0 83.5 -11.5t115.5 -49.5q82 -43 153 -43q38 0 68.5 9.5t77.5 37.5l41 -43q-101 -66 -187 -66q-52 0 -93.5 13.5t-118.5 54.5q-75 41 -138 41q-91 0 -164 -55z" />
<glyph unicode="&#xe4;" horiz-adv-x="1380" d="M84 543q0 120 43.5 225.5t119 181t181 119t225.5 43.5q171 0 307 -81.5t199 -221.5h4v276h58v-1085h-58v270h-4q-166 -297 -504 -297q-161 0 -291.5 74t-205 204.5t-74.5 291.5zM141 547q0 -226 146 -373t370 -147q218 0 365 147t147 367q0 223 -146.5 370.5 t-367.5 147.5q-145 0 -262.5 -66.5t-184.5 -184t-67 -261.5zM539 1266v237h59v-237h-59zM784 1266v237h60v-237h-60z" />
<glyph unicode="&#xe5;" horiz-adv-x="1380" d="M84 543q0 120 43.5 225.5t119 181t181 119t225.5 43.5q171 0 307 -81.5t199 -221.5h4v276h58v-1085h-58v270h-4q-166 -297 -504 -297q-161 0 -291.5 74t-205 204.5t-74.5 291.5zM141 547q0 -226 146 -373t370 -147q218 0 365 147t147 367q0 223 -146.5 370.5 t-367.5 147.5q-145 0 -262.5 -66.5t-184.5 -184t-67 -261.5zM504 1401q0 77 55 131.5t131 54.5q78 0 133.5 -54.5t55.5 -129.5q0 -78 -55.5 -133.5t-133.5 -55.5q-76 0 -131 55t-55 132zM561 1403q0 -54 37.5 -91.5t91.5 -37.5t92.5 37.5t38.5 91.5q0 55 -37.5 93t-93.5 38 q-54 0 -91.5 -38.5t-37.5 -92.5z" />
<glyph unicode="&#xe6;" horiz-adv-x="2363" d="M84 541q0 120 43.5 226.5t119 182t180.5 119t224 43.5q172 0 308 -87t190 -232q3 -12 4 -17l4 -8h4v317h58v-315h4q3 7 7.5 18t6.5 17q12 34 22.5 53.5t36.5 52.5q155 201 412 201q240 0 399 -156q82 -82 122.5 -179.5t49.5 -239.5h-1060q22 -157 65 -245.5t133 -158.5 q137 -106 312 -106q274 0 450 286h68q-82 -161 -218.5 -250.5t-302.5 -89.5q-143 0 -269 69.5t-193 184.5q-23 41 -41 105h-4v-332h-58v332h-4q-24 -79 -47 -117q-68 -107 -197 -174.5t-268 -67.5q-156 0 -285 75t-202.5 205.5t-73.5 287.5zM141 543q0 -220 147 -368 t365 -148q102 0 196 41t163 110t110 163.5t41 197.5q0 141 -68.5 261t-186 189.5t-255.5 69.5q-218 0 -365 -148t-147 -368zM1221 590h995q-26 132 -67 212.5t-113 143.5q-131 113 -322 113q-251 0 -405 -219q-36 -54 -54.5 -106t-33.5 -144z" />
<glyph unicode="&#xe7;" horiz-adv-x="1267" d="M84 541q0 244 163 407.5t406 163.5q113 0 215.5 -38.5t180.5 -110.5q52 -47 83.5 -96t63.5 -134h-63q-32 79 -66 127t-88 90q-136 109 -328 109q-218 0 -364 -148.5t-146 -369.5q0 -218 148 -366t368 -148q166 0 290 83t183 232h64q-33 -85 -70 -138.5t-96 -103.5 q-158 -127 -373 -127h-4l-41 -88l4 -2q15 6 29 6q62 0 103.5 -42t41.5 -105q0 -66 -42.5 -110t-106.5 -44q-125 0 -152 127h56q23 -71 94 -71q41 0 68.5 27.5t27.5 70.5q0 40 -27 67t-67 27q-50 0 -84 -51l-45 10l84 185q-126 17 -210.5 57.5t-156.5 118.5q-69 75 -106 175 t-37 210z" />
<glyph unicode="&#xe8;" horiz-adv-x="1267" d="M63 541q0 120 44 226t120.5 181.5t183 119.5t226.5 44q114 0 218.5 -41.5t182.5 -116.5q80 -79 119 -167t49 -220v-30h-1083q9 -128 41 -207.5t104 -149.5q72 -72 171.5 -112.5t203.5 -40.5q153 0 269 72.5t188 213.5h63q-42 -87 -82 -138t-102 -95q-147 -107 -342 -107 q-246 0 -410 162t-164 406zM125 590h1022q-10 108 -46 182.5t-108 142.5q-150 144 -352 144q-100 0 -195 -36.5t-165 -102.5q-71 -68 -107 -143t-49 -187zM360 1522l29 47l485 -283l-26 -47z" />
<glyph unicode="&#xe9;" horiz-adv-x="1267" d="M63 541q0 120 44 226t120.5 181.5t183 119.5t226.5 44q114 0 218.5 -41.5t182.5 -116.5q80 -79 119 -167t49 -220v-30h-1083q9 -128 41 -207.5t104 -149.5q72 -72 171.5 -112.5t203.5 -40.5q153 0 269 72.5t188 213.5h63q-42 -87 -82 -138t-102 -95q-147 -107 -342 -107 q-246 0 -410 162t-164 406zM125 590h1022q-10 108 -46 182.5t-108 142.5q-150 144 -352 144q-100 0 -195 -36.5t-165 -102.5q-71 -68 -107 -143t-49 -187zM383 1286l485 283l29 -47l-487 -283z" />
<glyph unicode="&#xea;" horiz-adv-x="1267" d="M63 541q0 120 44 226t120.5 181.5t183 119.5t226.5 44q114 0 218.5 -41.5t182.5 -116.5q80 -79 119 -167t49 -220v-30h-1083q9 -128 41 -207.5t104 -149.5q72 -72 171.5 -112.5t203.5 -40.5q153 0 269 72.5t188 213.5h63q-42 -87 -82 -138t-102 -95q-147 -107 -342 -107 q-246 0 -410 162t-164 406zM125 590h1022q-10 108 -46 182.5t-108 142.5q-150 144 -352 144q-100 0 -195 -36.5t-165 -102.5q-71 -68 -107 -143t-49 -187zM233 1307l400 225l401 -225l-53 -31l-348 192l-348 -192z" />
<glyph unicode="&#xeb;" horiz-adv-x="1267" d="M63 541q0 120 44 226t120.5 181.5t183 119.5t226.5 44q114 0 218.5 -41.5t182.5 -116.5q80 -79 119 -167t49 -220v-30h-1083q9 -128 41 -207.5t104 -149.5q72 -72 171.5 -112.5t203.5 -40.5q153 0 269 72.5t188 213.5h63q-42 -87 -82 -138t-102 -95q-147 -107 -342 -107 q-246 0 -410 162t-164 406zM125 590h1022q-10 108 -46 182.5t-108 142.5q-150 144 -352 144q-100 0 -195 -36.5t-165 -102.5q-71 -68 -107 -143t-49 -187zM471 1266v237h59v-237h-59zM717 1266v237h59v-237h-59z" />
<glyph unicode="&#xec;" horiz-adv-x="376" d="M-125 1522l29 47l485 -283l-27 -47zM160 0v1085h57v-1085h-57z" />
<glyph unicode="&#xed;" horiz-adv-x="376" d="M-10 1286l485 283l29 -47l-488 -283zM160 0v1085h57v-1085h-57z" />
<glyph unicode="&#xee;" horiz-adv-x="376" d="M-211 1307l399 225l402 -225l-53 -31l-349 192l-348 -192zM160 0v1085h57v-1085h-57z" />
<glyph unicode="&#xef;" horiz-adv-x="376" d="M37 1266v237h59v-237h-59zM160 0v1085h57v-1085h-57zM283 1266v237h59v-237h-59z" />
<glyph unicode="&#xf0;" horiz-adv-x="1312" d="M84 539q0 249 161 411t410 162q247 0 410 -184l4 4q-146 225 -438 381l-391 -158l-41 41l368 150q-156 76 -340 139l70 31q181 -61 340 -144l358 144l39 -43l-334 -134q166 -101 258.5 -184.5t157.5 -189.5q113 -185 113 -412q0 -252 -164 -416t-416 -164 q-246 0 -405.5 160t-159.5 406zM141 543q0 -221 146.5 -368.5t367.5 -147.5q220 0 368 147t148 365q0 106 -40.5 202.5t-109.5 166t-164 110.5t-200 41q-144 0 -262.5 -67.5t-186 -186t-67.5 -262.5z" />
<glyph unicode="&#xf1;" horiz-adv-x="1312" d="M160 0v1085h57v-208h4q29 58 60 91t86 66q125 78 290 78q243 0 370.5 -138t127.5 -401v-573h-57v573q0 238 -112 362t-327 124q-207 0 -324.5 -115.5t-117.5 -318.5v-625h-57zM285 1391q50 39 95.5 55t106.5 16q46 0 83.5 -11.5t115.5 -49.5q82 -43 154 -43q38 0 68 9.5 t77 37.5l41 -43q-101 -66 -186 -66q-53 0 -95 13.5t-118 54.5q-75 41 -138 41q-90 0 -163 -55z" />
<glyph unicode="&#xf2;" horiz-adv-x="1312" d="M84 543q0 243 163.5 406t407.5 163q160 0 291 -74t206 -204t75 -287q0 -247 -163 -410.5t-409 -163.5q-161 0 -291.5 74t-205 204.5t-74.5 291.5zM141 543q0 -221 147 -368.5t367 -147.5q218 0 366 147t148 365q0 224 -146.5 372t-367.5 148q-220 0 -367 -147.5 t-147 -368.5zM383 1522l29 47l485 -283l-27 -47z" />
<glyph unicode="&#xf3;" horiz-adv-x="1312" d="M84 543q0 243 163.5 406t407.5 163q160 0 291 -74t206 -204t75 -287q0 -247 -163 -410.5t-409 -163.5q-161 0 -291.5 74t-205 204.5t-74.5 291.5zM141 543q0 -221 147 -368.5t367 -147.5q218 0 366 147t148 365q0 224 -146.5 372t-367.5 148q-220 0 -367 -147.5 t-147 -368.5zM406 1286l485 283l29 -47l-488 -283z" />
<glyph unicode="&#xf4;" horiz-adv-x="1312" d="M84 543q0 243 163.5 406t407.5 163q160 0 291 -74t206 -204t75 -287q0 -247 -163 -410.5t-409 -163.5q-161 0 -291.5 74t-205 204.5t-74.5 291.5zM141 543q0 -221 147 -368.5t367 -147.5q218 0 366 147t148 365q0 224 -146.5 372t-367.5 148q-220 0 -367 -147.5 t-147 -368.5zM256 1307l399 225l402 -225l-53 -31l-349 192l-348 -192z" />
<glyph unicode="&#xf5;" horiz-adv-x="1312" d="M84 543q0 243 163.5 406t407.5 163q160 0 291 -74t206 -204t75 -287q0 -247 -163 -410.5t-409 -163.5q-161 0 -291.5 74t-205 204.5t-74.5 291.5zM141 543q0 -221 147 -368.5t367 -147.5q218 0 366 147t148 365q0 224 -146.5 372t-367.5 148q-220 0 -367 -147.5 t-147 -368.5zM285 1391q50 39 95.5 55t106.5 16q46 0 83.5 -11.5t115.5 -49.5q82 -43 154 -43q38 0 68 9.5t77 37.5l41 -43q-101 -66 -186 -66q-53 0 -95 13.5t-118 54.5q-75 41 -138 41q-90 0 -163 -55z" />
<glyph unicode="&#xf6;" horiz-adv-x="1312" d="M84 543q0 243 163.5 406t407.5 163q160 0 291 -74t206 -204t75 -287q0 -247 -163 -410.5t-409 -163.5q-161 0 -291.5 74t-205 204.5t-74.5 291.5zM141 543q0 -221 147 -368.5t367 -147.5q218 0 366 147t148 365q0 224 -146.5 372t-367.5 148q-220 0 -367 -147.5 t-147 -368.5zM504 1266v237h59v-237h-59zM750 1266v237h59v-237h-59z" />
<glyph unicode="&#xf7;" horiz-adv-x="1228" d="M102 483v58h1024v-58h-1024zM584 0v166h61v-166h-61zM584 858v166h61v-166h-61z" />
<glyph unicode="&#xf8;" horiz-adv-x="1312" d="M84 543q0 243 163.5 406t407.5 163q169 0 314 -90l127 176l43 -35l-123 -172q211 -181 211 -448q0 -161 -74.5 -291.5t-205.5 -204.5t-292 -74q-170 0 -313 90l-123 -169l-45 34l123 168q-213 174 -213 447zM141 543q0 -241 187 -404l608 838q-127 82 -281 82 q-220 0 -367 -147.5t-147 -368.5zM373 106q132 -79 282 -79q220 0 367 147.5t147 368.5q0 243 -186 403z" />
<glyph unicode="&#xf9;" horiz-adv-x="1312" d="M160 512v573h57v-573q0 -238 111 -361.5t325 -123.5q209 0 327 117.5t118 324.5v616h57v-1085h-57v219h-4q-117 -246 -437 -246q-243 0 -370 138t-127 401zM383 1522l29 47l485 -283l-27 -47z" />
<glyph unicode="&#xfa;" horiz-adv-x="1312" d="M160 512v573h57v-573q0 -238 111 -361.5t325 -123.5q209 0 327 117.5t118 324.5v616h57v-1085h-57v219h-4q-117 -246 -437 -246q-243 0 -370 138t-127 401zM416 1286l485 283l29 -47l-488 -283z" />
<glyph unicode="&#xfb;" horiz-adv-x="1312" d="M160 512v573h57v-573q0 -238 111 -361.5t325 -123.5q209 0 327 117.5t118 324.5v616h57v-1085h-57v219h-4q-117 -246 -437 -246q-243 0 -370 138t-127 401zM256 1307l399 225l402 -225l-53 -31l-349 192l-348 -192z" />
<glyph unicode="&#xfc;" horiz-adv-x="1312" d="M160 512v573h57v-573q0 -238 111 -361.5t325 -123.5q209 0 327 117.5t118 324.5v616h57v-1085h-57v219h-4q-117 -246 -437 -246q-243 0 -370 138t-127 401zM504 1266v237h59v-237h-59zM750 1266v237h59v-237h-59z" />
<glyph unicode="&#xfd;" horiz-adv-x="985" d="M23 1085h63l401 -1005l428 1005h68l-657 -1521h-66l193 438zM252 1286l485 283l29 -47l-487 -283z" />
<glyph unicode="&#xfe;" horiz-adv-x="1394" d="M160 -436v1952h57v-723h4q49 93 96.5 144.5t122.5 94.5q138 80 299 80q159 0 289.5 -74.5t205.5 -205t75 -289.5q0 -243 -164 -406.5t-408 -163.5q-169 0 -301 80t-215 234h-4v-723h-57zM217 543q0 -139 70 -258t190.5 -188.5t261.5 -69.5q218 0 365 147t147 365 q0 224 -146 372t-366 148q-143 0 -263 -68t-189.5 -187t-69.5 -261z" />
<glyph unicode="&#xff;" horiz-adv-x="985" d="M23 1085h63l401 -1005l428 1005h68l-657 -1521h-66l193 438zM340 1266v237h59v-237h-59zM586 1266v237h59v-237h-59z" />
<glyph unicode="&#x152;" horiz-adv-x="2412" d="M84 758q0 167 59 312.5t161 249t245.5 163t306.5 59.5q158 0 301.5 -56t247.5 -159q64 -61 100 -120.5t72 -159.5h4v469h707v-56h-646v-669h646v-56h-646v-680h646v-55h-707v469h-4q-38 -111 -85.5 -181.5t-127.5 -137.5q-211 -177 -502 -177q-220 0 -398 101.5 t-279 281.5t-101 402zM145 758q0 -154 54.5 -289.5t149 -232t228 -152t285.5 -55.5q196 0 361.5 94.5t261.5 257.5t96 356v45q0 136 -56.5 269t-156.5 233q-206 203 -506 203q-152 0 -285.5 -55t-228 -151.5t-149 -232t-54.5 -290.5z" />
<glyph unicode="&#x153;" horiz-adv-x="2367" d="M84 541q0 244 163 407.5t406 163.5q141 0 262 -63t199 -177q43 -61 76 -157l4 8q43 107 88 168.5t119 114.5q140 98 323 98q112 0 215 -43t181 -121q82 -83 120.5 -175.5t45.5 -225.5h-1061q12 -134 47.5 -218t109.5 -157q69 -66 160 -101.5t189 -35.5q192 0 327 116 q44 38 69.5 74.5t51.5 99.5h64q-39 -93 -77 -143.5t-100 -95.5q-144 -105 -329 -105q-106 0 -208.5 38.5t-178.5 107.5q-57 51 -89 102.5t-63 143.5h-4q-47 -107 -92.5 -168.5t-114.5 -114.5q-142 -109 -334 -109q-160 0 -290.5 74.5t-204.5 204.5t-74 289zM141 543 q0 -220 147 -368t365 -148q103 0 197 41t162.5 109.5t109.5 162t41 195.5q0 143 -68.5 263.5t-186.5 190.5t-257 70q-142 0 -259 -67.5t-184 -186t-67 -262.5zM1227 592h991q-23 203 -162.5 331t-335.5 128q-187 0 -325 -123q-72 -64 -110.5 -141.5t-57.5 -194.5z" />
<glyph unicode="&#x178;" horiz-adv-x="1134" d="M31 1516h67l469 -924l467 924h70l-506 -994v-522h-61v522zM416 1645v237h59v-237h-59zM662 1645v237h59v-237h-59z" />
<glyph unicode="&#x2c6;" d="M168 1307l399 225l402 -225l-54 -31l-348 192l-348 -192z" />
<glyph unicode="&#x2dc;" d="M197 1391q50 39 95.5 55t106.5 16q46 0 83.5 -11.5t115.5 -49.5q82 -43 154 -43q38 0 68 9.5t77 37.5l41 -43q-101 -66 -186 -66q-53 0 -95 13.5t-118 54.5q-75 41 -138 41q-90 0 -163 -55z" />
<glyph unicode="&#x2000;" horiz-adv-x="974" />
<glyph unicode="&#x2001;" horiz-adv-x="1948" />
<glyph unicode="&#x2002;" horiz-adv-x="974" />
<glyph unicode="&#x2003;" horiz-adv-x="1948" />
<glyph unicode="&#x2004;" horiz-adv-x="649" />
<glyph unicode="&#x2005;" horiz-adv-x="487" />
<glyph unicode="&#x2006;" horiz-adv-x="324" />
<glyph unicode="&#x2007;" horiz-adv-x="324" />
<glyph unicode="&#x2008;" horiz-adv-x="243" />
<glyph unicode="&#x2009;" horiz-adv-x="389" />
<glyph unicode="&#x200a;" horiz-adv-x="108" />
<glyph unicode="&#x2010;" horiz-adv-x="544" d="M0 537v59h545v-59h-545z" />
<glyph unicode="&#x2011;" horiz-adv-x="544" d="M0 537v59h545v-59h-545z" />
<glyph unicode="&#x2012;" horiz-adv-x="544" d="M0 537v59h545v-59h-545z" />
<glyph unicode="&#x2013;" horiz-adv-x="1024" d="M72 537v59h880v-59h-880z" />
<glyph unicode="&#x2014;" horiz-adv-x="2048" d="M72 537v59h1904v-59h-1904z" />
<glyph unicode="&#x2018;" horiz-adv-x="567" d="M184 1516h68l131 -316h-68z" />
<glyph unicode="&#x2019;" horiz-adv-x="567" d="M184 1200l131 316h68l-131 -316h-68z" />
<glyph unicode="&#x201a;" horiz-adv-x="567" d="M184 -147l131 315h68l-131 -315h-68z" />
<glyph unicode="&#x201c;" horiz-adv-x="757" d="M188 1516h68l131 -316h-68zM371 1516h67l131 -316h-67z" />
<glyph unicode="&#x201d;" horiz-adv-x="757" d="M188 1200l131 316h68l-131 -316h-68zM371 1200l131 316h67l-131 -316h-67z" />
<glyph unicode="&#x201e;" horiz-adv-x="757" d="M188 -147l131 315h68l-131 -315h-68zM371 -147l131 315h67l-131 -315h-67z" />
<glyph unicode="&#x2022;" horiz-adv-x="768" d="M72 770q0 131 92.5 223t224.5 92q129 0 221 -92t92 -221q0 -132 -91.5 -224.5t-223.5 -92.5q-129 0 -222 92.5t-93 222.5z" />
<glyph unicode="&#x2026;" horiz-adv-x="2048" d="M311 0v168h62v-168h-62zM993 0v168h62v-168h-62zM1675 0v168h62v-168h-62z" />
<glyph unicode="&#x202f;" horiz-adv-x="389" />
<glyph unicode="&#x2039;" horiz-adv-x="507" d="M109 563l227 398l41 -54l-197 -344l197 -338l-41 -53z" />
<glyph unicode="&#x203a;" horiz-adv-x="507" d="M131 225l197 338l-197 344l41 54l227 -398l-227 -391z" />
<glyph unicode="&#x205f;" horiz-adv-x="487" />
<glyph unicode="&#x20ac;" d="M55 608l11 54h155v77q0 105 2 144h-168l11 53h159q19 309 132.5 457.5t330.5 148.5q174 0 276 -88.5t121 -255.5h-59q-44 289 -338 289q-188 0 -285 -133.5t-116 -417.5h622l-10 -53h-614q-2 -27 -2 -95v-28v-45l2 -53h573l-10 -54h-561q19 -312 112 -445.5t291 -133.5 q151 0 234 67.5t112 214.5h62q-32 -172 -131.5 -255t-276.5 -83q-227 0 -337 149t-130 486h-168z" />
<glyph unicode="&#x2122;" horiz-adv-x="1859" d="M20 1466v50h564v-50h-256v-860h-56v860h-252zM713 606v910h75l426 -824l428 824h74v-910h-55v830h-4l-426 -830h-33l-426 828h-4v-828h-55z" />
<glyph unicode="&#x25fc;" horiz-adv-x="1085" d="M0 0v1085h1085v-1085h-1085z" />
</font>
</defs>
</svg>
